PathFileType	4	(X/Y/Z)	2014001\dynamic\2014001_C3_05.trc
DataRate	CameraRate	NumFrames	NumMarkers	Units	OrigDataRate	OrigDataStartFrame	OrigNumFrames
100.000000	100.000000	4	52	mm	100.000000	43	172
Frame#	Time	L_IAS			L_IPS			R_IPS			R_IAS			L_FTC			L_FLE			L_FME			L_FAX			L_TTC			L_FAL			L_TAM			L_FCC			L_FM1			L_FM2			L_FM5			R_FTC			R_FLE			R_FME			R_FAX			R_TTC			R_FAL			R_TAM			R_FCC			R_FM1			R_FM2			R_FM5			CV7			TV10			SXS			SJN			L_SIA			L_SRS			L_SAA			L_SAE			L_HLE			L_HME			L_UOA			L_RSP			L_UHE			L_HM2			L_HM5			R_SIA			R_SRS			R_SAA			R_SAE			R_HLE			R_HME			R_UOA			R_RSP			R_UHE			R_HM2			R_HM5			
		X1	Y1	Z1	X2	Y2	Z2	X3	Y3	Z3	X4	Y4	Z4	X5	Y5	Z5	X6	Y6	Z6	X7	Y7	Z7	X8	Y8	Z8	X9	Y9	Z9	X10	Y10	Z10	X11	Y11	Z11	X12	Y12	Z12	X13	Y13	Z13	X14	Y14	Z14	X15	Y15	Z15	X16	Y16	Z16	X17	Y17	Z17	X18	Y18	Z18	X19	Y19	Z19	X20	Y20	Z20	X21	Y21	Z21	X22	Y22	Z22	X23	Y23	Z23	X24	Y24	Z24	X25	Y25	Z25	X26	Y26	Z26	X27	Y27	Z27	X28	Y28	Z28	X29	Y29	Z29	X30	Y30	Z30	X31	Y31	Z31	X32	Y32	Z32	X33	Y33	Z33	X34	Y34	Z34	X35	Y35	Z35	X36	Y36	Z36	X37	Y37	Z37	X38	Y38	Z38	X39	Y39	Z39	X40	Y40	Z40	X41	Y41	Z41	X42	Y42	Z42	X43	Y43	Z43	X44	Y44	Z44	X45	Y45	Z45	X46	Y46	Z46	X47	Y47	Z47	X48	Y48	Z48	X49	Y49	Z49	X50	Y50	Z50	X51	Y51	Z51	X52	Y52	Z52	

44	0.43	322.9251098632814	882.680786132813	335.4779357910157	242.9417266845704	916.7389526367192	161.7628021240235	153.9849243164063	914.1157836914067	164.5686340332032	85.23930358886722	881.2807617187505	344.1801147460939	381.6716308593751	794.5676269531255	267.468475341797	372.9673461914064	464.7002868652346	405.515319824219	259.0051879882814	454.2408752441409	440.7646179199221	376.716278076172	406.1028442382815	386.1877136230471	339.4191894531251	382.8242797851564	454.3242492675784	345.7288513183595	86.39489746093753	348.6080932617189	263.0613708496095	92.72441864013675	383.7396545410157	295.9248962402345	43.26617431640626	311.0235595703126	299.6772460937501	51.04465103149417	491.152282714844	357.0451965332032	61.22880935668948	484.7039184570315	388.8694763183596	43.55830383300783	435.751403808594	27.8212013244629	786.0981445312505	246.2657318115236	76.93640899658206	437.4553833007815	222.0298919677736	197.0281372070314	428.0782775878909	229.2943115234376	75.84944152832034	372.2111206054689	196.0114135742189	128.7718963623047	361.4321289062501	254.8711242675782	133.1449127197266	69.6039962768555	119.2505950927735	217.7942504882814	83.22011566162112	157.7200927734376	189.4985504150391	30.87850952148439	74.10894012451175	203.6001434326173	23.06622314453126	260.8116149902345	139.3664855957032	35.32455444335939	267.4100952148439	93.20994567871097	23.23962020874024	205.8918609619142	196.9407653808595	1383.393188476563	203.9566955566407	191.4384002685547	1150.302612304688	141.2632293701172	216.9685821533204	1158.277954101563	374.6248779296876	212.5346679687501	1319.258544921875	330.8149414062501	279.9242553710939	1189.360229492188	127.594581604004	276.4165954589845	1319.652099609375	150.2978973388672	390.5152893066409	1318.308959960938	206.2379760742189	384.7546386718752	1328.786743164063	248.4713439941407	458.7738952636721	1054.802001953125	175.1246337890626	380.9415283203126	1022.658752441407	159.9373779296876	427.4173583984377	1026.750366210938	144.2574310302735	452.3447875976565	809.781127929688	229.2992401123048	508.8388366699221	821.2016601562505	173.1392211914063	464.4051208496096	721.7716064453127	237.1015930175782	512.0540161132815	745.4539184570315	150.1860351562501	74.4936218261719	1192.842041015625	153.0636138916016	105.0983963012696	1315.011840820313	172.6922302246094	10.15650081634522	1319.252075195313	257.5633544921876	28.52101516723634	1325.2470703125	303.2104797363282	-74.15605163574222	1030.751098632813	323.7319335937501	-3.363747596740724	999.9120483398442	294.0353393554689	-51.73667907714847	994.7726440429692	298.5928344726564	-38.9293670654297	877.9776000976567	492.321960449219	-104.1149063110352	857.2416381835942	450.8188476562502	-57.16786956787112	816.118041992188	561.920349121094	-108.7182159423829	784.8378906250005	478.4419250488284	
45	0.44	323.0659790039064	880.569946289063	346.476043701172	243.6405639648439	914.852416992188	172.5367431640626	154.744369506836	912.535766601563	175.1528320312501	85.22402954101565	879.476196289063	354.697723388672	381.9076232910157	792.3100585937505	278.2859497070314	372.2658081054689	462.7157897949221	417.5647583007815	258.3504943847657	452.983093261719	452.7212219238284	376.007293701172	403.2582702636721	401.2998962402346	338.6455383300782	383.8052673339845	470.4981994628909	346.3620605468751	82.04920959472659	385.8747863769534	263.4480285644532	90.54348754882815	420.6539001464846	296.5738525390626	36.12262344360353	351.3372497558595	300.0647277832032	56.37417602539065	530.5646972656252	357.4469604492189	66.2371520996094	523.6546630859377	389.3476562500002	45.33118438720705	476.1126098632815	27.87312316894533	785.0834960937505	255.4990997314454	77.05244445800784	437.0207824707034	225.8560943603517	197.0479888916017	427.2258300781252	233.5180969238282	76.06362915039065	372.072967529297	199.0394897460939	128.7043762207032	360.3679504394532	257.9544067382814	133.5842590332032	69.9870300292969	119.5134887695313	218.2902832031251	83.40104675292972	158.2167968750001	190.1211395263672	31.43435287475587	74.36722564697268	203.5206604003907	23.03086662292481	261.0353088378907	139.3264465332032	35.19392776489259	267.4339294433595	93.33415222167972	23.18698692321778	205.7428436279298	197.573211669922	1381.638671875	215.4660491943361	191.8512268066407	1148.776000976563	152.3412475585938	217.4193572998048	1156.2109375	385.7761535644534	213.3081512451173	1317.283935546875	342.2673339843751	279.988250732422	1187.563354492188	138.6733551025391	276.7064819335939	1317.877563476563	161.6210327148438	390.8543090820315	1316.219604492188	217.1446380615236	385.3420410156252	1326.567504882813	259.4947814941407	458.9697265625002	1053.278442382813	183.7026672363282	381.0585327148439	1021.032409667969	169.2889862060547	427.2916564941409	1025.368408203125	153.0535278320313	453.9798278808596	807.9183959960942	236.2283477783204	509.6642761230471	819.8639526367192	179.3766479492188	466.4429626464846	719.9678955078127	243.3693847656251	512.790466308594	744.2219238281252	155.9553985595704	74.6567306518555	1191.460815429688	164.6699829101563	105.4978103637696	1313.485595703125	184.4110107421876	10.7604398727417	1317.905517578125	269.4685668945314	29.38710975646974	1323.841674804688	314.9100646972657	-74.82575225830081	1029.899291992188	337.7759094238282	-4.218391895294191	998.6213378906255	308.0360717773439	-52.51571273803714	993.426391601563	313.0813903808595	-38.16524505615236	880.8414916992192	509.1723937988284	-103.3937377929688	858.982299804688	468.3007812500002	-55.91621780395511	820.951538085938	580.3957519531252	-107.5072860717774	787.1333618164067	497.9165344238284	
46	0.45	323.2728576660157	878.209106445313	357.5638732910157	244.4456329345704	912.7445678710942	183.3883972167969	155.5938415527344	910.7990112304692	185.8030090332032	85.25086212158206	877.5854492187505	365.2986450195314	382.1584472656251	789.7719116210942	289.1180725097657	371.614227294922	460.3459777832034	429.1995849609377	257.6126708984376	451.2407836914065	464.102478027344	375.3721923828126	400.2538146972659	416.1134033203127	337.8408813476564	384.6196594238284	486.150085449219	347.0275268554689	78.8980407714844	422.7672424316409	263.8125305175782	89.59001159667972	456.9474182128909	297.2655334472657	30.42126083374025	391.3482360839846	300.1819458007814	62.90529251098636	568.8743286132815	357.6035461425782	72.33925628662112	561.684753417969	389.661560058594	48.30423736572268	515.7932739257815	27.91751098632814	784.023315429688	264.840545654297	77.15515136718753	436.5646972656252	229.9512329101564	197.0308532714845	426.3341979980471	238.0815734863282	76.26966094970706	371.9495544433595	202.3213043212892	128.5917510986329	359.2810058593751	261.2864379882814	134.0074615478516	70.44633483886722	119.8211212158204	218.7521057128907	83.6596374511719	158.7884826660157	190.7216186523438	32.1376419067383	74.63886260986331	203.4420013427736	23.01433372497559	261.2527770996095	139.2935180664063	35.05443191528322	267.4513549804689	93.47121429443362	23.12772941589356	205.5869140625001	198.2872314453126	1379.708862304688	227.0261077880861	192.3794250488282	1147.098510742188	163.4637756347657	217.9349212646486	1153.963989257813	396.988220214844	214.1381378173829	1315.138916015625	353.7895507812501	280.2068176269532	1185.622680664063	149.8274078369141	277.1104431152345	1315.958740234375	173.0375518798829	391.310241699219	1313.975708007813	228.1929626464845	385.9959716796877	1324.188842773438	270.6607055664064	459.2342224121096	1051.551635742188	192.6636962890626	381.2528381347657	1019.187377929688	179.0290069580079	427.2363891601565	1023.780517578125	162.2336730957032	455.668640136719	805.8842163085942	243.5304260253907	510.580993652344	818.3811645507817	186.048324584961	468.5444335937502	717.980895996094	249.9820251464845	513.669372558594	742.8791503906252	162.1509399414063	74.96175384521487	1189.892333984375	176.2737274169922	106.0054092407227	1311.783203125	196.1775054931642	11.4438009262085	1316.351196289063	281.3916625976564	30.3258686065674	1322.217651367188	326.6570434570314	-75.32552337646487	1028.789916992188	351.7259216308595	-4.896201133728029	997.1375122070317	321.850067138672	-53.06392288208011	991.874389648438	327.4570617675782	-37.20389556884767	883.3225097656255	525.6057128906252	-102.4913482666016	860.4396972656255	485.4016723632815	-54.43880081176761	825.2974243164067	598.325622558594	-106.1237487792969	789.1552734375005	516.878845214844	
47	0.46	323.5372314453126	875.6421508789067	368.7601928710939	245.3615875244142	910.4365234375005	194.3296966552736	156.5452423095704	908.9206542968755	196.5285491943361	85.31772613525393	875.633178710938	375.9754028320314	382.4400024414064	787.0059204101567	300.0123901367189	371.0202941894532	457.6805725097659	440.5511474609377	256.7960815429689	449.108581542969	475.0232238769534	374.8106384277345	397.1713867187502	430.6777954101565	337.0214843750001	385.2786254882815	501.346130371094	347.666473388672	76.87487792968753	458.8867187500002	264.1160888671876	89.75624847412112	492.2475891113284	297.9383850097657	26.11927986145021	430.5950317382815	300.0126037597657	70.40364837646487	605.7347412109377	357.4974670410157	79.31427001953128	598.4410400390627	389.7793884277346	52.29809188842776	554.3887329101565	27.96856689453126	782.929321289063	274.2982177734376	77.24202728271487	436.0946350097659	234.3493499755861	196.9711914062501	425.406433105469	243.0112152099611	76.46004486083987	371.8425903320314	205.8867797851564	128.4328308105469	358.1846313476564	264.895477294922	134.3906555175782	71.0011901855469	120.1825103759766	219.1568603515626	84.00518798828128	159.4387817382813	191.2691802978516	33.01825332641603	74.91977691650393	203.3589477539064	23.02470779418946	261.4552001953126	139.2615051269532	34.91959762573244	267.4671630859376	93.6128845214844	23.07000923156739	205.4306488037111	199.0815734863282	1377.627075195313	238.6419219970704	193.0167083740236	1145.292358398438	174.6365661621094	218.5200805664064	1151.565063476563	408.2677917480471	215.0288238525392	1312.849243164063	365.3825683593751	280.5726928710939	1183.551879882813	161.0587921142579	277.6253662109376	1313.911499023438	184.5446319580079	391.8814392089846	1311.598510742188	239.367645263672	386.722351074219	1321.678466796875	281.9529418945314	459.5795898437502	1049.634399414063	202.0191192626954	381.5367431640626	1017.136047363282	189.1638183593751	427.2651672363284	1022.000915527344	171.8083801269532	457.418884277344	803.6911621093755	251.219451904297	511.596130371094	816.7644653320317	193.1671905517579	470.7073974609377	715.8222656250002	256.9485778808595	514.6880493164065	741.4373168945315	168.780014038086	75.40914154052737	1188.159057617188	187.8830566406251	106.6231307983399	1309.933227539063	207.9891662597657	12.20962047576905	1314.607177734375	293.3370666503907	31.33637428283693	1320.3994140625	338.4572143554689	-75.64445495605472	1027.441528320313	365.5594787597657	-5.384680271148683	995.4732055664067	335.4731750488282	-53.37398910522464	990.130249023438	341.7023315429689	-36.05440139770509	885.406860351563	541.6060180664065	-101.4159088134766	861.5976562500005	502.1128845214846	-52.75020980834964	829.125854492188	615.7025146484377	-104.5812911987305	790.8815917968755	535.3081054687502	
